<svg width="12" height="13" viewBox="0 0 12 13" fill="none" xmlns="http://www.w3.org/2000/svg">
<path d="M11.493 2.44363L10.1408 1.09151C9.46479 0.415459 8.4507 0.415459 7.77465 1.09151L0.676056 8.19011C0.507042 8.35912 0.394366 8.52813 0.338028 8.75349C0.112676 9.42954 0 11.7394 0 12.0211C0 12.1338 0.056338 12.2464 0.112676 12.3028C0.169014 12.3591 0.28169 12.4155 0.394366 12.4155C0.450704 12.4155 0.676056 12.4155 0.957747 12.4155C1.74648 12.4155 3.15493 12.4155 3.71831 12.2464C3.94366 12.1901 4.16901 12.0774 4.33803 11.9084L11.493 4.80982C12.169 4.13377 12.169 3.06335 11.493 2.44363ZM9.57747 1.6549L10.9296 3.00701C11.2676 3.34504 11.2676 3.85208 10.9296 4.19011L10.8732 4.24644L8.33803 1.71123L8.39437 1.6549C8.73239 1.37321 9.23944 1.37321 9.57747 1.6549ZM9.23944 3.85208L5.23944 7.85208C5.07042 8.02109 4.84507 8.02109 4.73239 7.85208C4.56338 7.68306 4.56338 7.45771 4.73239 7.34504L8.73239 3.34504L9.23944 3.85208ZM0.84507 11.6267C0.901408 11.007 0.957747 10.2746 1.01408 9.71123L2.87324 11.5704C2.30986 11.6267 1.46479 11.6267 0.84507 11.6267ZM3.83099 11.2887L1.35211 8.80982L7.71831 2.33095L8.11268 2.72532L4.11268 6.72532C3.66197 7.17602 3.66197 7.96475 4.11268 8.4718C4.33803 8.69715 4.67606 8.80982 4.95775 8.80982C5.29577 8.80982 5.57747 8.69715 5.80282 8.4718L9.80282 4.4718L10.1972 4.86616L3.83099 11.2887Z" fill="#41A017"/>
</svg>
