<svg width="24" height="25" viewBox="0 0 24 25" fill="none" xmlns="http://www.w3.org/2000/svg">
<path d="M19.2851 13.1347C19.2851 13.0647 19.2851 12.9947 19.2851 12.9247C19.2901 7.68969 16.7001 4.80469 12.0001 4.80469C7.30014 4.80469 4.71014 7.68969 4.71014 12.9247C4.71014 12.9947 4.71014 13.0647 4.71014 13.1347C4.28514 13.4247 3.84514 14.0397 3.99014 15.3147C4.13514 16.5897 4.76514 17.6497 5.54014 17.9297C6.80514 21.4997 9.26014 23.7097 12.0001 23.7097C14.7401 23.7097 17.1951 21.4997 18.4551 17.9297C19.2301 17.6497 19.8601 16.6247 20.0051 15.3147C20.1501 14.0047 19.7101 13.4247 19.2851 13.1347ZM19.0001 15.2047C18.8751 16.2947 18.3501 16.9847 18.0301 17.0047H17.6901L17.5801 17.3297C16.5001 20.6547 14.3651 22.7097 12.0001 22.7097C9.63514 22.7097 7.50014 20.6547 6.40514 17.3447L6.29514 16.9997H5.95514C5.63514 16.9997 5.11014 16.2897 4.98514 15.1997C4.90514 14.4697 5.04514 14.0247 5.40514 13.8897L5.74014 13.7597V13.5897C5.92663 13.5403 6.10633 13.4681 6.27514 13.3747C6.80467 13.0125 7.24007 12.5291 7.54514 11.9647C7.73905 11.6048 8.00448 11.2883 8.32514 11.0347C8.60014 10.8797 9.45514 11.2547 9.96514 11.4797C10.3776 11.6936 10.8189 11.8468 11.2751 11.9347C12.2151 12.0347 14.4651 11.5397 14.9301 11.3897C15.1991 11.3409 15.4766 11.3727 15.7275 11.4813C15.9784 11.5898 16.1916 11.7702 16.3401 11.9997C16.6201 12.3897 17.1951 12.8047 18.2751 13.3997V13.7697L18.6101 13.8997C18.9551 14.0297 19.0951 14.4997 19.0001 15.2047Z" fill="#554F52"/>
</svg>
