<svg width="16" height="16" viewBox="0 0 16 16" fill="none" xmlns="http://www.w3.org/2000/svg">
<path d="M7.51953 10.7514L9.04158 9.30917L9.60824 9.77689C9.61359 9.77689 9.61817 9.77797 9.62256 9.77901C9.63084 9.78096 9.63846 9.78277 9.64938 9.77689L14.1288 5.23189L14.1442 5.22417C14.3088 5.10846 14.5222 5.09303 14.7035 5.18303C14.8848 5.27303 14.9992 5.45431 14.9992 5.66003V7.22089C14.9992 7.39446 14.926 7.55003 14.7935 7.64903L9.96181 12.2275L9.9451 12.2352C9.8551 12.3007 9.73938 12.3342 9.63267 12.3342C9.52596 12.3342 9.41024 12.3007 9.32024 12.2352L9.30353 12.2275L7.51953 10.7514Z" fill="#54C4DE"/>
<path d="M9.70429 5.18303C9.523 5.09303 9.30957 5.10846 9.145 5.22417L9.12957 5.23189L4.65014 9.77689C4.63343 9.78589 4.62443 9.77689 4.609 9.77689L1.86271 7.51017L1.855 7.50117C1.69043 7.37774 1.477 7.36103 1.29571 7.46003C1.11571 7.55903 1 7.73903 1 7.93703V9.24331C1 9.4156 1.08229 9.57246 1.21343 9.67017L4.30429 12.2275L4.321 12.2352C4.411 12.3007 4.52671 12.3342 4.63343 12.3342C4.74014 12.3342 4.85586 12.3007 4.94586 12.2352L4.96257 12.2275L9.79429 7.64903C9.92671 7.55003 10 7.39446 10 7.22089V5.66003C10 5.45431 9.88557 5.27303 9.70429 5.18303Z" fill="#54C4DE"/>
</svg>
