<svg width="38" height="38" viewBox="0 0 38 38" fill="none" xmlns="http://www.w3.org/2000/svg">
<path d="M1.73381 16.8198C1.45328 16.8198 1.22375 16.5903 1.22375 16.3097L1.19824 12.0124C1.19824 10.7245 1.81032 9.76813 1.83583 9.72988C1.83583 9.71713 1.84858 9.71713 1.84858 9.70438L4.57744 5.92988C4.59019 5.91713 4.60294 5.90438 4.61569 5.89162C4.67945 5.81511 6.23515 4.11914 8.65797 4.11914H18.515C18.7956 4.11914 19.0251 4.34867 19.0251 4.62921C19.0251 4.90974 18.7956 5.13927 18.515 5.13927H8.65797C6.82173 5.13927 5.54656 6.40169 5.39354 6.56746L2.69019 10.291C2.63918 10.3675 2.21838 11.0816 2.21838 12.0124L2.24388 16.297C2.25663 16.5775 2.0271 16.8071 1.73381 16.8198C1.74656 16.8198 1.74656 16.8198 1.73381 16.8198Z" fill="#FFFFFF"/>
<path d="M36.2907 16.9983C36.0102 16.9983 35.7807 16.7688 35.7807 16.4883V12.0507C35.7807 10.9668 35.2196 10.1507 35.2068 10.1507L32.325 6.17216C31.2411 5.11378 29.7874 5.13928 29.7746 5.13928H29.7619H14.5491C14.2686 5.13928 14.0391 4.90975 14.0391 4.62921C14.0391 4.34867 14.2686 4.11914 14.5491 4.11914H29.7491C29.9276 4.11914 31.7129 4.10639 33.0773 5.47082C33.1028 5.49633 33.1156 5.50908 33.1283 5.53458L36.0229 9.55136C36.0484 9.58961 36.788 10.6225 36.788 12.0507V16.4883C36.8008 16.7688 36.5713 16.9983 36.2907 16.9983Z" fill="#FFFFFF"/>
<path d="M5.99248 20.5051C3.31463 20.5051 1.28711 18.5159 1.28711 15.8763C1.28711 15.5957 1.51664 15.3662 1.79718 15.3662C2.07771 15.3662 2.30724 15.5957 2.30724 15.8763C2.30724 17.9675 3.8502 19.485 5.99248 19.485C8.09651 19.485 9.81798 17.7635 9.81798 15.6595C9.81798 15.3789 10.0475 15.1494 10.328 15.1494C10.6086 15.1494 10.8381 15.3789 10.8381 15.6595C10.8381 18.3373 8.67033 20.5051 5.99248 20.5051Z" fill="#FFFFFF"/>
<path d="M14.7148 20.5051C12.0369 20.5051 9.86914 18.3373 9.86914 15.6595C9.86914 15.3789 10.0987 15.1494 10.3792 15.1494C10.6597 15.1494 10.8893 15.3789 10.8893 15.6595C10.8893 17.7635 12.6107 19.485 14.7148 19.485C16.8188 19.485 18.5403 17.7635 18.5403 15.6595C18.5403 15.3789 18.7698 15.1494 19.0503 15.1494C19.3309 15.1494 19.5604 15.3789 19.5604 15.6595C19.5604 18.3373 17.3926 20.5051 14.7148 20.5051Z" fill="#FFFFFF"/>
<path d="M23.4501 20.5051C20.7723 20.5051 18.6045 18.3373 18.6045 15.6595C18.6045 15.3789 18.834 15.1494 19.1146 15.1494C19.3951 15.1494 19.6246 15.3789 19.6246 15.6595C19.6246 17.7635 21.3461 19.485 23.4501 19.485C25.5542 19.485 27.2756 17.7635 27.2756 15.6595C27.2756 15.3789 27.5052 15.1494 27.7857 15.1494C28.0662 15.1494 28.2958 15.3789 28.2958 15.6595C28.2958 18.3373 26.1152 20.5051 23.4501 20.5051Z" fill="#FFFFFF"/>
<path d="M32.0068 20.5051C29.3289 20.5051 27.1611 18.3373 27.1611 15.6595C27.1611 15.3789 27.3907 15.1494 27.6712 15.1494C27.9517 15.1494 28.1813 15.3789 28.1813 15.6595C28.1813 17.7635 29.9027 19.485 32.0068 19.485C34.0853 19.485 35.7047 17.8018 35.7047 15.6595C35.7047 15.3789 35.9343 15.1494 36.2148 15.1494C36.4953 15.1494 36.7249 15.3789 36.7249 15.6595C36.7249 18.3756 34.6464 20.5051 32.0068 20.5051Z" fill="#FFFFFF"/>
<path d="M29.7616 11.3622H8.23676C8.05824 11.3622 7.91797 11.2219 7.91797 11.0434C7.91797 10.8649 8.05824 10.7246 8.23676 10.7246H29.7488C29.9274 10.7246 30.0676 10.8649 30.0676 11.0434C30.0676 11.2219 29.9274 11.3622 29.7616 11.3622Z" fill="#FFFFFF"/>
<path d="M15.2122 34.4176C14.9317 34.4176 14.7021 34.188 14.7021 33.9075V23.8592C14.7021 23.5787 14.9317 23.3491 15.2122 23.3491C15.4928 23.3491 15.7223 23.5787 15.7223 23.8592V33.9075C15.7223 34.188 15.4928 34.4176 15.2122 34.4176Z" fill="#FFFFFF"/>
<path d="M10.9527 29.087C10.0218 29.087 9.28223 28.3347 9.28223 27.4166C9.28223 26.4984 10.0346 25.7461 10.9527 25.7461C11.8708 25.7461 12.6359 26.4984 12.6359 27.4166C12.6359 28.3347 11.8836 29.087 10.9527 29.087ZM10.9527 26.7535C10.5956 26.7535 10.3024 27.0468 10.3024 27.4038C10.3024 27.7609 10.5956 28.0541 10.9527 28.0541C11.3097 28.0541 11.6158 27.7609 11.6158 27.4038C11.6158 27.0468 11.3225 26.7535 10.9527 26.7535Z" fill="#FFFFFF"/>
<path d="M25.6688 30.4387C25.5922 30.4387 25.503 30.4132 25.4392 30.3494L21.499 26.4091C21.3714 26.2816 21.3714 26.0776 21.499 25.9628C21.6265 25.8353 21.8305 25.8353 21.9453 25.9628L25.8855 29.9031C26.0131 30.0306 26.0131 30.2346 25.8855 30.3494C25.8345 30.4132 25.7453 30.4387 25.6688 30.4387Z" fill="#FFFFFF"/>
<path d="M29.8511 26.3452C29.7746 26.3452 29.6853 26.3196 29.6216 26.2559L26.6249 23.2592C26.4974 23.1317 26.4974 22.9277 26.6249 22.8129C26.7525 22.6854 26.9565 22.6854 27.0712 22.8129L30.0679 25.8096C30.1954 25.9371 30.1954 26.1411 30.0679 26.2559C30.0169 26.3196 29.9276 26.3452 29.8511 26.3452Z" fill="#FFFFFF"/>
<path d="M29.4305 30.1838C29.354 30.1838 29.2647 30.1583 29.2009 30.0945L22.3915 23.2851C22.264 23.1576 22.264 22.9536 22.3915 22.8388C22.5191 22.7113 22.7231 22.7113 22.8378 22.8388L29.6472 29.6482C29.7748 29.7757 29.7748 29.9797 29.6472 30.0945C29.5962 30.1583 29.507 30.1838 29.4305 30.1838Z" fill="#FFFFFF"/>
<path d="M33.868 34.4169H4.36062C3.3915 34.4169 2.6264 34.1236 2.06532 33.537C1.19821 32.6189 1.22371 31.3182 1.22371 31.1397V16.3095C1.22371 16.0289 1.45324 15.7994 1.73378 15.7994C2.01432 15.7994 2.24385 16.0289 2.24385 16.3095V31.1524C2.24385 31.1652 2.24385 31.1779 2.24385 31.1779C2.24385 31.1907 2.19284 32.1981 2.80492 32.8484C3.14921 33.2182 3.67203 33.4095 4.34787 33.4095H33.8553C34.0465 33.4095 35.768 33.3075 35.768 30.8591V14.4095C35.768 14.1289 35.9975 13.8994 36.2781 13.8994C36.5586 13.8994 36.7881 14.1289 36.7881 14.4095V30.8591C36.8009 34.3786 33.8935 34.4169 33.868 34.4169Z" fill="#FFFFFF"/>
</svg>
